<?xml version="1.0" encoding="utf-8"?>
<!-- Generator: Adobe Illustrator 24.0.2, SVG Export Plug-In . SVG Version: 6.00 Build 0)  -->
<svg version="1.1" id="Layer_1" xmlns="http://www.w3.org/2000/svg" xmlns:xlink="http://www.w3.org/1999/xlink" x="0px" y="0px"
	 viewBox="0 0 110 110" style="enable-background:new 0 0 110 110;" xml:space="preserve">
<style type="text/css">
	.st0{fill:#E04F5F;}
	.st1{fill:#FBC8C8;}
	.st2{fill:#F3B607;}
	.st3{fill:#F7B4B4;}
	.st4{fill:#FFFFFF;}
	.st5{fill:#FBD7D7;}
	.st6{fill:#F79392;}
	.st7{fill:#3E3E3F;}
</style>
<g id="Artboard">
</g>
<g id="Multicolor">
	<g>
		<circle class="st0" cx="55" cy="55" r="55"/>
	</g>
	<g>
		<g>
			<path class="st1" d="M41.1,47.1c-0.4,0-0.7,0-1.1-0.1c-1,0-2,1.1-2,2.2c0,2.9,0.8,6.7,3.7,7.6L41.1,47.1z"/>
			<path class="st1" d="M70,47c-0.4,0.1-0.7,0.1-1.1,0.1l-0.5,9.7c2.9-0.9,3.7-4.7,3.7-7.6C72,48.1,71,47,70,47z"/>
			<path class="st1" d="M66,46.6C60.3,44.9,55,39,55,39s-5.3,5.9-11,7.6v15.1c2.9,5.6,7.3,8.1,11,9.3c3.7-1.2,8.1-3.7,11-9.3V46.6z"
				/>
		</g>
		<path class="st2" d="M83.4,79.7c-0.9-2.3-2.8-4.1-5.2-4.8L65,72H55H45l-13.2,2.9c-2.4,0.7-4.3,2.5-5.2,4.8L23,87h32h32L83.4,79.7z
			"/>
		<path class="st3" d="M65,68v-4.5c-2.8,4.4-6.7,6.5-10,7.5v16h2l8-16.2V68z"/>
		<g>
			<path class="st4" d="M65,70.8V68c2.6,0.6,4.9,2,6.7,3.9l3.3,3.7h-7l0.1,0.3C70.6,80.5,67.4,87,57,87L65,70.8z"/>
		</g>
		<path class="st1" d="M45,63.5V68v2.8L53,87h2V71C51.7,69.9,47.8,67.8,45,63.5z"/>
		<g>
			<path class="st4" d="M45,70.8V68c-2.6,0.6-4.9,2-6.7,3.9L35,75.6h7l-0.1,0.3C39.4,80.5,42.6,87,53,87L45,70.8z"/>
		</g>
		<g>
			<path class="st5" d="M41.1,47.1c-0.4,0-0.7,0-1.1-0.1c-1,0-2,1.1-2,2.2c0,2.9,0.8,6.7,3.7,7.6L41.1,47.1z"/>
			<path class="st5" d="M44,46.6v15.1c2.9,5.6,7.3,8.1,11,9.3V39C55,39,49.7,44.9,44,46.6z"/>
		</g>
		<g>
			<path class="st6" d="M50,60h10c0,0,0,3-5,3S50,60,50,60z"/>
		</g>
		<g>
			<path class="st7" d="M52,49c0-1.1-0.9-2-2-2c0,0,0,0,0,0c0,0,0,0,0,0.1c0,1.1-0.9,2-2,2c0,1.1,0.9,1.9,2,1.9
				C51.1,51,52,50.1,52,49z"/>
		</g>
		<g>
			<path class="st7" d="M62,49c0-1.1-0.9-2-2-2c0,0,0,0,0,0c0,0,0,0,0,0.1c0,1.1-0.9,2-2,2c0,1.1,0.9,1.9,2,1.9
				C61.1,51,62,50.1,62,49z"/>
		</g>
		<path class="st7" d="M60.9,30.2C61,29.8,61,29.4,61,29c0-3.3-2.7-6-6-6s-6,2.7-6,6c0,0.4,0,0.8,0.1,1.2C42,31.5,36.1,36.8,40,47
			c0.4,0.1,0.7,0.1,1.1,0.1l0.6,11.4c0.2,3.4,0.4,6.1,2.3,8.5V46.6c5.7-1.7,11-7.6,11-7.6s5.3,5.9,11,7.6V67
			c1.9-2.5,2.1-5.1,2.3-8.5l0.6-11.4c0.4,0,0.7,0,1.1-0.1C73.9,36.8,68,31.5,60.9,30.2z"/>
	</g>
</g>
</svg>
